<svg width="512" height="512" viewBox="0 0 512 512" fill="none" xmlns="http://www.w3.org/2000/svg">
<g clip-path="url(#clip0_10_214)">
<rect width="512" height="512" fill="#F2FBFF"/>
<rect width="512" height="512" fill="#C0F6FF"/>
<path d="M328.893 687.512C328.893 779.687 297.01 687.512 247.331 687.512C197.652 687.512 157.569 779.687 157.569 687.512C157.569 595.336 157.38 328.818 250.173 328.818C337.283 328.818 328.893 595.336 328.893 687.512Z" fill="#40AF3C" stroke="#401A24" stroke-width="10" stroke-linecap="round"/>
<path d="M139.426 477.946C139.426 526.856 157.511 566.505 184.243 566.505C210.975 566.505 232.645 526.856 232.645 477.946C232.645 429.037 224.599 366.083 197.867 366.083C171.135 366.083 139.426 429.037 139.426 477.946Z" fill="#40AF3C"/>
<path d="M195.274 364.503C186.887 361.866 163.959 391.283 156.842 405.19C149.724 419.097 144.336 439.974 141.544 464.455C138.752 488.937 138.72 515.598 141.452 540.143C144.184 564.688 149.522 585.687 156.605 599.758C163.688 613.829 172.105 620.152 180.498 617.708C188.891 615.264 181.997 606.761 188.097 588.851C194.197 570.941 182.622 580.492 183.809 554.806C184.997 529.119 189.883 497.249 188.097 468.939" stroke="#401A24" stroke-width="10" stroke-linecap="round" stroke-linejoin="round"/>
<path d="M360.507 477.946C360.507 526.856 342.422 566.505 315.69 566.505C288.958 566.505 267.288 526.856 267.288 477.946C267.288 429.037 275.334 366.083 302.066 366.083C328.798 366.083 360.507 429.037 360.507 477.946Z" fill="#40AF3C"/>
<path d="M304.923 364.503C313.31 361.866 336.238 391.283 343.355 405.19C350.473 419.097 355.861 439.974 358.653 464.455C361.445 488.937 361.477 515.598 358.745 540.143C356.013 564.688 350.675 585.687 343.592 599.758C336.509 613.829 328.092 620.152 319.699 617.708C311.305 615.264 303.424 604.195 297.324 586.285C291.224 568.375 298.512 551.234 297.324 525.548C294.975 474.754 295.167 499.969 295.167 464.455" stroke="#401A24" stroke-width="10" stroke-linecap="round" stroke-linejoin="round"/>
<path d="M364.52 394.806C364.52 435.838 349.828 415.295 297.084 435.434C256.206 451.043 235.768 458.847 222.753 456.879C209.738 454.911 197.541 445.349 173.147 426.224C142.517 402.209 144.728 402.214 144.728 394.806C144.729 340.337 197.402 361.523 258.096 361.523C318.79 361.523 364.52 340.337 364.52 394.806Z" fill="#E32239" stroke="#401A24" stroke-width="10" stroke-linecap="round"/>
<path d="M146.245 242.353C141.458 229.648 142.196 215.52 148.28 203.383L152.535 194.894L159.434 181.129C163.33 173.358 172.545 169.886 180.6 173.155L194.867 178.944L203.666 182.515C216.246 187.62 226.122 197.749 230.909 210.454L232.12 213.668C240.929 237.047 229.117 263.141 205.738 271.949C182.359 280.758 156.265 268.946 147.456 245.567L146.245 242.353Z" fill="#C95D3C"/>
<path d="M194.867 178.944L196.747 174.311L194.867 178.944ZM152.535 194.894L148.065 192.653L152.535 194.894ZM203.666 182.515L205.546 177.882L203.666 182.515ZM226.231 212.217L227.442 215.431L236.799 211.905L235.588 208.691L226.231 212.217ZM152.135 243.804L150.924 240.59L141.567 244.116L142.777 247.33L152.135 243.804ZM192.987 183.577L201.785 187.148L205.546 177.882L196.747 174.311L192.987 183.577ZM178.72 177.788L192.987 183.577L196.747 174.311L182.48 168.522L178.72 177.788ZM152.75 205.623L157.005 197.134L148.065 192.653L143.81 201.142L152.75 205.623ZM157.005 197.134L163.904 183.37L154.964 178.889L148.065 192.653L157.005 197.134ZM182.48 168.522C172.008 164.272 160.029 168.785 154.964 178.889L163.904 183.37C166.631 177.93 173.081 175.499 178.72 177.788L182.48 168.522ZM203.975 267.27C183.18 275.106 159.97 264.599 152.135 243.804L142.777 247.33C152.56 273.293 181.537 286.411 207.501 276.628L203.975 267.27ZM227.442 215.431C235.277 236.226 224.77 259.435 203.975 267.27L207.501 276.628C233.464 266.846 246.582 237.868 236.799 211.905L227.442 215.431ZM235.588 208.691C230.31 194.68 219.419 183.512 205.546 177.882L201.785 187.148C213.074 191.729 221.935 200.817 226.231 212.217L235.588 208.691ZM150.924 240.59C146.629 229.19 147.291 216.514 152.75 205.623L143.81 201.142C137.101 214.527 136.288 230.105 141.567 244.116L150.924 240.59Z" fill="#401A24"/>
<path d="M361.888 281.984C361.888 336.453 312.686 380.609 251.992 380.609C191.298 380.609 142.096 336.453 142.096 281.984C142.096 227.515 194.77 168.647 255.464 168.647C316.158 168.647 361.888 227.515 361.888 281.984Z" fill="#ED8A5F" stroke="#401A24" stroke-width="10" stroke-linecap="round"/>
<path d="M166.676 166.258C167.82 164.19 169.237 162.285 170.888 160.594L193.079 137.864L207.806 125.916C214.115 120.797 220.909 116.308 228.092 112.512L229.355 111.844C239.94 106.251 251.329 102.337 263.116 100.243L263.734 100.133C275.584 98.0274 287.696 97.852 299.602 99.6135C316.454 102.107 332.512 108.424 346.546 118.08L351.737 121.652C358.707 126.448 365.223 131.87 371.205 137.852L371.866 138.513C388.05 154.697 400.127 174.52 407.087 196.325L409.161 202.823C411.863 211.288 413.365 220.091 413.622 228.973L414.967 275.447C415.06 278.657 413.522 281.695 410.879 283.519C405.797 287.029 398.768 284.815 396.614 279.026L388.387 256.917C387.433 254.354 386.862 251.665 386.692 248.935L386.466 245.288C385.802 234.606 381.888 224.381 375.25 215.985L372.947 213.071C369.987 209.327 366.619 205.924 362.906 202.924L353.473 195.303L337.513 178.499C337.461 178.444 337.405 178.393 337.345 178.347C335.902 177.224 334.075 179.149 335.272 180.532L345.412 192.248L355.434 203.829C361.996 211.411 365.608 221.103 365.608 231.13V241.68C365.608 243.144 365.169 244.574 364.349 245.785L352.206 263.717C351.222 265.171 352.816 266.981 354.382 266.19C355.748 265.5 355.58 263.499 354.119 263.046L236.27 226.547C231.33 225.017 226.188 224.239 221.017 224.239H169.84C167.343 224.239 164.895 224.92 162.757 226.209C150.735 233.459 136.877 220.107 143.674 207.824L166.676 166.258Z" fill="#E32239" stroke="#401A24" stroke-width="10"/>
<path d="M132.04 209.573C132.04 180.398 148.369 180.037 198.058 189.146C202.162 189.899 204.215 190.275 206.153 190.476C208.092 190.677 210.054 190.727 213.976 190.827C301.217 193.047 347.436 192.698 347.436 202.927C347.436 257.396 310.209 245.066 232.545 240.498C168.54 236.733 132.04 238.038 132.04 209.573Z" fill="#40AF3C" stroke="#401A24" stroke-width="10" stroke-linecap="round"/>
<path d="M302.229 221.952C309.492 210.481 321.216 202.564 334.57 200.115L343.91 198.401L359.054 195.623C367.605 194.055 375.925 199.322 378.164 207.722L382.131 222.6L384.577 231.775C388.075 244.893 385.934 258.877 378.671 270.348L376.834 273.25C363.469 294.359 335.523 300.637 314.415 287.273C293.306 273.909 287.028 245.963 300.392 224.854L302.229 221.952Z" fill="#ED8A5F"/>
<path d="M382.131 222.6L386.962 221.311L382.131 222.6ZM343.91 198.401L343.008 193.484L343.91 198.401ZM384.577 231.775L389.408 230.486L384.577 231.775ZM374.446 267.674L372.609 270.576L381.058 275.925L382.895 273.023L374.446 267.674ZM304.616 227.529L306.454 224.627L298.005 219.278L296.167 222.18L304.616 227.529ZM377.299 223.888L379.746 233.063L389.408 230.486L386.962 221.311L377.299 223.888ZM373.333 209.011L377.299 223.888L386.962 221.311L382.995 206.434L373.333 209.011ZM335.472 205.033L344.812 203.319L343.008 193.484L333.668 195.197L335.472 205.033ZM344.812 203.319L359.956 200.541L358.152 190.705L343.008 193.484L344.812 203.319ZM382.995 206.434C380.084 195.514 369.268 188.666 358.152 190.705L359.956 200.541C365.941 199.443 371.765 203.131 373.333 209.011L382.995 206.434ZM317.089 283.049C298.314 271.161 292.729 246.304 304.616 227.529L296.167 222.18C281.326 245.621 288.298 276.656 311.74 291.498L317.089 283.049ZM372.609 270.576C360.722 289.351 335.865 294.936 317.089 283.049L311.74 291.498C335.182 306.339 366.217 299.367 381.058 275.925L372.609 270.576ZM382.895 273.023C390.904 260.373 393.265 244.953 389.408 230.486L379.746 233.063C382.884 244.834 380.963 257.381 374.446 267.674L382.895 273.023ZM306.454 224.627C312.97 214.334 323.49 207.231 335.472 205.033L333.668 195.197C318.942 197.898 306.013 206.628 298.005 219.278L306.454 224.627Z" fill="#401A24"/>
<path d="M319.988 234.885C323.667 229.073 329.607 225.062 336.374 223.821L341.106 222.953L348.778 221.546C353.111 220.751 357.326 223.42 358.461 227.676L360.47 235.213L361.71 239.862C363.482 246.508 362.397 253.593 358.717 259.405L357.787 260.876C351.016 271.571 336.857 274.751 326.162 267.98C315.467 261.209 312.286 247.05 319.057 236.355L319.988 234.885Z" fill="#FFBCA6"/>
<path d="M360.47 235.213L365.302 233.925L365.302 233.925L360.47 235.213ZM341.106 222.953L340.203 218.035L341.106 222.953ZM354.493 256.731L353.562 258.201L362.011 263.55L362.942 262.08L354.493 256.731ZM323.281 239.03L324.212 237.56L315.763 232.211L314.832 233.681L323.281 239.03ZM355.639 236.501L356.879 241.15L366.541 238.574L365.302 233.925L355.639 236.501ZM353.63 228.964L355.639 236.501L365.302 233.925L363.292 226.388L353.63 228.964ZM337.276 228.739L342.008 227.871L340.203 218.035L335.471 218.903L337.276 228.739ZM342.008 227.871L349.68 226.463L347.876 216.628L340.203 218.035L342.008 227.871ZM363.292 226.388C361.485 219.611 354.774 215.362 347.876 216.628L349.68 226.463C351.447 226.139 353.167 227.228 353.63 228.964L363.292 226.388ZM328.836 263.756C320.474 258.462 317.987 247.392 323.281 239.03L314.832 233.681C306.584 246.709 310.459 263.957 323.487 272.205L328.836 263.756ZM353.562 258.201C348.268 266.563 337.198 269.05 328.836 263.756L323.487 272.205C336.515 280.453 353.763 276.578 362.011 263.55L353.562 258.201ZM362.942 262.08C367.368 255.089 368.672 246.568 366.541 238.574L356.879 241.15C358.291 246.449 357.427 252.097 354.493 256.731L362.942 262.08ZM324.212 237.56C327.146 232.926 331.882 229.729 337.276 228.739L335.471 218.903C327.333 220.396 320.189 225.22 315.763 232.211L324.212 237.56Z" fill="#401A24"/>
<ellipse cx="149.347" cy="271.223" rx="13.4185" ry="19.4322" transform="rotate(10.1936 149.347 271.223)" fill="#F2FBFF" stroke="#401A24" stroke-width="10" stroke-linejoin="round"/>
<path d="M175.819 317.332C174.697 319.168 174.256 321.079 174.533 322.902C174.811 324.726 175.798 326.409 177.411 327.809C179.025 329.209 181.218 330.285 183.805 330.947C186.393 331.609 189.298 331.836 192.277 331.611C195.255 331.386 198.22 330.714 200.92 329.652C203.62 328.59 205.977 327.169 207.791 325.51C209.605 323.85 210.824 322.001 211.344 320.117C211.864 318.233 211.67 316.371 210.779 314.686" stroke="#401A24" stroke-width="10" stroke-linecap="round" stroke-linejoin="round"/>
<ellipse cx="242.557" cy="278.033" rx="13.4185" ry="19.4322" transform="rotate(10.1936 242.557 278.033)" fill="#F2FBFF" stroke="#401A24" stroke-width="10" stroke-linejoin="round"/>
<path d="M439.804 295.992C443.606 311.488 434.127 327.132 418.632 330.934C403.136 334.736 387.492 325.257 383.69 309.761C379.888 294.266 404.862 274.82 404.862 274.82C404.862 274.82 436.002 280.497 439.804 295.992Z" fill="#F2FBFF" stroke="#401A24" stroke-width="10" stroke-linejoin="round"/>
</g>
<defs>
<clipPath id="clip0_10_214">
<rect width="512" height="512" fill="white"/>
</clipPath>
</defs>
</svg>
