<svg width="512" height="512" viewBox="0 0 512 512" fill="none" xmlns="http://www.w3.org/2000/svg">
<g clip-path="url(#clip0_28_377)">
<rect width="512" height="512" fill="#F2FBFF"/>
<rect width="512" height="512" fill="#C0F6FF"/>
<path d="M561.241 323.718C561.833 324.785 560.353 322.118 561.611 325.397C562.868 328.677 564.397 335.323 567.453 348.617C627.538 609.935 367.754 556.775 308.007 556.775C247.313 556.775 232.48 460.966 232.48 406.497C232.48 352.028 285.155 293.16 345.848 293.16C401.508 293.16 538.839 283.341 561.241 323.718Z" fill="#ED8A5F" stroke="#401A24" stroke-width="10" stroke-linecap="round"/>
<circle cx="194.541" cy="426.665" r="28.3775" fill="#40AF3C"/>
<circle cx="194.541" cy="426.665" r="28.3775" fill="#40AF3C"/>
<circle cx="194.541" cy="426.665" r="28.3775" fill="#40AF3C"/>
<circle cx="194.541" cy="426.665" r="28.3775" fill="#40AF3C"/>
<circle cx="194.541" cy="426.665" r="28.3775" stroke="#401A24" stroke-width="10" stroke-linejoin="round"/>
<path d="M497.734 293.339C511.982 297.693 519.106 299.87 525.403 304.171C531.699 308.472 545.154 325.493 572.063 359.537C630.458 433.412 498.395 471.594 381.046 471.594C320.352 471.594 206.231 484.846 196.949 405.823C196.949 373.37 233.016 340.035 274.882 319.638C319.868 297.722 342.361 286.764 347.898 285.485C353.435 284.206 376.93 284.191 423.919 284.16C449.359 284.144 476.682 286.906 497.734 293.339Z" fill="#E32239" stroke="#401A24" stroke-width="10" stroke-linecap="round"/>
<path d="M166.414 254.206C153.384 250.39 142.541 241.304 136.502 229.144L132.279 220.639L125.431 206.849C121.565 199.063 124.333 189.613 131.789 185.143L144.995 177.226L153.139 172.344C164.784 165.363 178.816 163.564 191.846 167.38L195.142 168.346C219.118 175.368 232.862 200.498 225.839 224.474C218.816 248.451 193.687 262.194 169.71 255.172L166.414 254.206Z" fill="#C95D3C"/>
<path d="M144.995 177.226L142.424 172.938L144.995 177.226ZM132.279 220.639L127.801 222.863L132.279 220.639ZM153.139 172.344L150.568 168.056L153.139 172.344ZM190.44 172.179L193.736 173.144L196.547 163.547L193.251 162.582L190.44 172.179ZM171.116 250.373L167.819 249.408L165.009 259.005L168.305 259.97L171.116 250.373ZM147.566 181.515L155.71 176.632L150.568 168.056L142.424 172.938L147.566 181.515ZM134.36 189.431L147.566 181.515L142.424 172.938L129.219 180.854L134.36 189.431ZM140.981 226.92L136.758 218.416L127.801 222.863L132.024 231.368L140.981 226.92ZM136.758 218.416L129.91 204.625L120.953 209.073L127.801 222.863L136.758 218.416ZM129.219 180.854C119.525 186.665 115.927 198.951 120.953 209.073L129.91 204.625C127.203 199.175 129.141 192.56 134.36 189.431L129.219 180.854ZM221.041 223.069C214.794 244.395 192.442 256.62 171.116 250.373L168.305 259.97C194.931 267.769 222.838 252.506 230.637 225.88L221.041 223.069ZM193.736 173.144C215.063 179.39 227.287 201.743 221.041 223.069L230.637 225.88C238.436 199.253 223.174 171.346 196.547 163.547L193.736 173.144ZM193.251 162.582C178.883 158.373 163.41 160.358 150.568 168.056L155.71 176.632C166.159 170.369 178.749 168.754 190.44 172.179L193.251 162.582ZM167.819 249.408C156.128 245.983 146.399 237.831 140.981 226.92L132.024 231.368C138.683 244.777 150.64 254.796 165.009 259.005L167.819 249.408Z" fill="#401A24"/>
<path d="M117.82 115.833C112.786 109.327 113.978 99.9717 120.484 94.9373C126.99 89.9028 136.346 91.0957 141.38 97.6017L170.445 135.162L149.274 107.803C145.983 103.549 145.212 97.863 147.253 92.8876C151.92 81.5105 167.524 80.2351 173.977 90.7034L213.752 155.236C216.706 160.029 215.569 166.279 211.116 169.725C206.306 173.447 205.424 180.364 209.146 185.175L216.671 194.899C221.705 201.405 220.512 210.76 214.006 215.795C207.501 220.829 198.145 219.636 193.111 213.13L186.126 204.104C181.995 198.766 174.488 197.432 168.771 201.021C163.559 204.294 156.772 203.504 152.451 199.122L102.067 148.039C92.9048 138.749 97.9793 122.99 110.841 120.793C116.721 119.788 122.675 122.108 126.326 126.825L146.885 153.393L117.82 115.833Z" fill="#9C3B30" stroke="#401A24" stroke-width="10" stroke-linejoin="round"/>
<path d="M361.888 281.984C361.888 336.453 312.685 380.609 251.992 380.609C191.298 380.609 142.095 336.453 142.095 281.984C142.095 227.515 194.77 168.648 255.463 168.648C316.157 168.648 361.888 227.515 361.888 281.984Z" fill="#ED8A5F" stroke="#401A24" stroke-width="10" stroke-linecap="round"/>
<path d="M361.888 281.984C361.888 336.453 312.685 380.609 251.992 380.609C191.298 380.609 142.095 336.453 142.095 281.984C142.095 227.515 194.77 168.648 255.463 168.648C316.157 168.648 361.888 227.515 361.888 281.984Z" stroke="#401A24" stroke-width="10" stroke-linecap="round"/>
<path d="M359.576 106.109C365.526 100.428 374.954 100.647 380.635 106.597C386.316 112.547 386.097 121.976 380.147 127.656L345.796 160.452L370.818 136.563C374.708 132.85 380.284 131.495 385.444 133.01C397.243 136.474 400.126 151.863 390.382 159.364L330.312 205.603C325.85 209.038 319.516 208.554 315.628 204.481C311.428 200.082 304.456 199.92 300.057 204.121L291.163 212.611C285.213 218.292 275.785 218.073 270.104 212.123C264.423 206.173 264.642 196.745 270.592 191.064L278.847 183.183C283.729 178.522 284.279 170.917 280.117 165.602C276.323 160.756 276.406 153.925 280.317 149.173L325.913 93.7738C334.205 83.6991 350.404 87.1156 353.921 99.681C355.528 105.425 353.837 111.588 349.523 115.707L325.225 138.905L359.576 106.109Z" fill="#9C3B30" stroke="#401A24" stroke-width="10" stroke-linejoin="round"/>
<path d="M294.255 194.641C301.517 183.17 313.241 175.253 326.596 172.804L335.935 171.09L351.079 168.312C359.63 166.744 367.95 172.011 370.19 180.411L374.156 195.288L376.602 204.463C380.1 217.582 377.959 231.566 370.696 243.037L368.859 245.939C355.495 267.048 327.549 273.326 306.44 259.962C285.331 246.598 279.053 218.652 292.417 197.543L294.255 194.641Z" fill="#ED8A5F"/>
<path d="M374.156 195.288L378.987 194L374.156 195.288ZM335.935 171.09L335.033 166.172L335.935 171.09ZM376.602 204.463L381.434 203.175L376.602 204.463ZM366.472 240.363L364.635 243.265L373.084 248.614L374.921 245.712L366.472 240.363ZM296.642 200.218L298.479 197.316L290.03 191.966L288.193 194.868L296.642 200.218ZM369.325 196.576L371.771 205.751L381.434 203.175L378.987 194L369.325 196.576ZM365.359 181.699L369.325 196.576L378.987 194L375.021 179.123L365.359 181.699ZM327.498 177.722L336.837 176.008L335.033 166.172L325.693 167.886L327.498 177.722ZM336.837 176.008L351.981 173.23L350.177 163.394L335.033 166.172L336.837 176.008ZM375.021 179.123C372.11 168.203 361.293 161.355 350.177 163.394L351.981 173.23C357.967 172.132 363.791 175.819 365.359 181.699L375.021 179.123ZM309.115 255.737C290.339 243.85 284.755 218.993 296.642 200.218L288.193 194.868C273.351 218.31 280.324 249.345 303.766 264.186L309.115 255.737ZM364.635 243.265C352.748 262.04 327.89 267.625 309.115 255.737L303.766 264.186C327.208 279.028 358.242 272.056 373.084 248.614L364.635 243.265ZM374.921 245.712C382.93 233.062 385.291 217.642 381.434 203.175L371.771 205.751C374.909 217.523 372.988 230.07 366.472 240.363L374.921 245.712ZM298.479 197.316C304.996 187.023 315.515 179.92 327.498 177.722L325.693 167.886C310.967 170.587 298.039 179.317 290.03 191.966L298.479 197.316Z" fill="#401A24"/>
<path d="M312.013 207.574C315.693 201.762 321.633 197.751 328.399 196.51L333.131 195.642L340.804 194.234C345.136 193.44 349.352 196.108 350.486 200.364L352.496 207.902L353.735 212.551C355.507 219.197 354.423 226.282 350.743 232.094L349.812 233.564C343.041 244.259 328.882 247.44 318.187 240.669C307.492 233.898 304.311 219.739 311.082 209.044L312.013 207.574Z" fill="#FFBCA6"/>
<path d="M352.496 207.902L357.327 206.614L357.327 206.614L352.496 207.902ZM333.131 195.642L332.229 190.724L333.131 195.642ZM346.518 229.42L345.588 230.89L354.037 236.239L354.967 234.769L346.518 229.42ZM315.307 211.719L316.238 210.249L307.789 204.899L306.858 206.37L315.307 211.719ZM347.665 209.19L348.904 213.839L358.567 211.262L357.327 206.614L347.665 209.19ZM345.655 201.652L347.665 209.19L357.327 206.614L355.318 199.076L345.655 201.652ZM329.301 201.428L334.033 200.56L332.229 190.724L327.497 191.592L329.301 201.428ZM334.033 200.56L341.706 199.152L339.902 189.316L332.229 190.724L334.033 200.56ZM355.318 199.076C353.511 192.3 346.799 188.051 339.902 189.316L341.706 199.152C343.473 198.828 345.192 199.917 345.655 201.652L355.318 199.076ZM320.862 236.445C312.5 231.151 310.013 220.081 315.307 211.719L306.858 206.37C298.61 219.398 302.485 236.646 315.513 244.894L320.862 236.445ZM345.588 230.89C340.294 239.252 329.224 241.739 320.862 236.445L315.513 244.894C328.541 253.142 345.788 249.267 354.037 236.239L345.588 230.89ZM354.967 234.769C359.393 227.778 360.698 219.257 358.567 211.262L348.904 213.839C350.317 219.138 349.452 224.786 346.518 229.42L354.967 234.769ZM316.238 210.249C319.171 205.615 323.907 202.417 329.301 201.428L327.497 191.592C319.359 193.085 312.214 197.909 307.789 204.899L316.238 210.249Z" fill="#401A24"/>
<ellipse cx="147.754" cy="259.34" rx="13.4185" ry="19.4322" transform="rotate(20.1781 147.754 259.34)" fill="#F2FBFF" stroke="#401A24" stroke-width="10" stroke-linejoin="round"/>
<ellipse cx="238.372" cy="282.208" rx="13.4185" ry="19.4322" transform="rotate(20.1781 238.372 282.208)" fill="#F2FBFF" stroke="#401A24" stroke-width="10" stroke-linejoin="round"/>
<path d="M238.372 342.353C238.372 354.772 227.068 364.84 213.123 364.84C199.178 364.84 187.874 354.772 187.874 342.353C187.874 329.934 199.178 335.865 213.123 335.865C227.068 335.865 238.372 329.934 238.372 342.353Z" fill="#401A24" stroke="#401A24" stroke-width="10" stroke-linejoin="round"/>
<path d="M235.548 350.06C232.19 359.972 219.509 364.634 207.225 360.472C194.94 356.31 199.882 348.812 199.882 348.812C203.24 338.9 215.921 334.238 228.206 338.4C228.206 338.4 238.906 340.147 235.548 350.06Z" fill="#F2FBFF" stroke="#401A24" stroke-width="10" stroke-linejoin="round"/>
<path d="M381.812 507.27L385.11 528.679C386.056 534.824 388.14 540.739 391.256 546.12L399.337 560.078" stroke="#401A24" stroke-width="10" stroke-linecap="round" stroke-linejoin="round"/>
<circle cx="150.733" cy="301.818" r="28.8893" fill="#E32239" stroke="#401A24" stroke-width="10" stroke-linejoin="round"/>
<circle cx="268.219" cy="472.43" r="28.3775" fill="#40AF3C"/>
<circle cx="268.219" cy="472.43" r="28.3775" fill="#40AF3C"/>
<circle cx="268.219" cy="472.43" r="28.3775" fill="#40AF3C"/>
<circle cx="268.219" cy="472.43" r="28.3775" fill="#40AF3C"/>
<circle cx="268.219" cy="472.43" r="28.3775" stroke="#401A24" stroke-width="10" stroke-linejoin="round"/>
<circle cx="381.812" cy="483.033" r="28.3775" fill="#40AF3C"/>
<circle cx="381.812" cy="483.033" r="28.3775" fill="#40AF3C"/>
<circle cx="381.812" cy="483.033" r="28.3775" fill="#40AF3C"/>
<circle cx="381.812" cy="483.033" r="28.3775" fill="#40AF3C"/>
<circle cx="381.812" cy="483.033" r="28.3775" stroke="#401A24" stroke-width="10" stroke-linejoin="round"/>
<circle cx="495.405" cy="472.43" r="28.3775" fill="#40AF3C"/>
<circle cx="495.405" cy="472.43" r="28.3775" fill="#40AF3C"/>
<circle cx="495.405" cy="472.43" r="28.3775" fill="#40AF3C"/>
<circle cx="495.405" cy="472.43" r="28.3775" fill="#40AF3C"/>
<circle cx="495.405" cy="472.43" r="28.3775" stroke="#401A24" stroke-width="10" stroke-linejoin="round"/>
</g>
<defs>
<clipPath id="clip0_28_377">
<rect width="512" height="512" fill="white"/>
</clipPath>
</defs>
</svg>
