<svg width="512" height="512" viewBox="0 0 512 512" fill="none" xmlns="http://www.w3.org/2000/svg">
<g clip-path="url(#clip0_63_84)">
<rect width="512" height="512" fill="#F2FBFF"/>
<rect x="0.152344" y="0.410645" width="512" height="512" fill="#C0F6FF"/>
<rect width="512" height="512" fill="#C0F6FF"/>
<path d="M362.402 685.495C362.402 777.671 315.952 685.495 243.575 685.495C171.199 685.495 112.801 777.671 112.801 685.495C112.801 593.32 112.526 326.802 247.716 326.802C374.625 326.802 362.402 593.32 362.402 685.495Z" fill="#E32239" stroke="#401A24" stroke-width="10" stroke-linecap="round"/>
<path d="M86.3692 475.93C86.3692 524.839 112.717 564.488 151.663 564.488C190.608 564.488 222.179 524.839 222.179 475.93C222.179 427.02 210.457 364.066 171.512 364.066C132.566 364.066 86.3692 427.02 86.3692 475.93Z" fill="#E32239"/>
<path d="M167.734 362.487C155.515 359.849 122.111 389.266 111.742 403.173C101.373 417.081 93.5219 437.957 89.4545 462.438C85.3871 486.92 85.3399 513.581 89.3205 538.126C93.301 562.671 101.078 583.671 111.397 597.742C121.717 611.813 133.979 618.135 146.207 615.691C158.435 613.247 148.39 604.744 157.277 586.834C166.164 568.924 149.3 578.476 151.031 552.789C152.761 527.102 132.578 516.321 153.394 478.719" stroke="#401A24" stroke-width="10" stroke-linecap="round" stroke-linejoin="round"/>
<path d="M408.46 475.93C408.46 524.839 382.112 564.488 343.166 564.488C304.221 564.488 272.65 524.839 272.65 475.93C272.65 427.02 284.372 364.066 323.317 364.066C362.263 364.066 408.46 427.02 408.46 475.93Z" fill="#E32239"/>
<path d="M327.48 362.487C339.699 359.849 373.102 389.266 383.472 403.173C393.841 417.081 401.691 437.957 405.759 462.438C409.826 486.92 409.873 513.581 405.893 538.126C401.912 562.671 394.136 583.671 383.816 597.742C373.497 611.813 361.235 618.135 349.007 615.691C336.778 613.247 325.296 602.178 316.409 584.269C307.522 566.359 293.239 542.803 318.983 542.803C336.115 542.803 333.197 498.459 318.983 476.644" stroke="#401A24" stroke-width="10" stroke-linecap="round" stroke-linejoin="round"/>
<path d="M241.18 396.266C241.18 391.448 245.086 387.542 249.904 387.542C254.723 387.542 258.629 391.448 258.629 396.266V478.214C258.629 483.032 254.723 486.938 249.904 486.938C245.086 486.938 241.18 483.032 241.18 478.214V396.266Z" fill="#F2FBFF" stroke="#401A24" stroke-width="10"/>
<rect x="176.132" y="388.916" width="17.4489" height="99.3961" rx="8.72443" fill="#F2FBFF" stroke="#401A24" stroke-width="10"/>
<path d="M399.499 390.782C399.499 432.821 359.347 402.712 292.094 422.026C247.265 434.9 224.85 441.337 213.041 439.033C201.232 436.73 189.691 427.682 166.61 409.587C135.98 385.572 138.192 385.577 138.192 378.169C138.192 340.195 216.182 334.51 283.985 334.549C334.414 334.578 359.628 334.593 368.934 338.519C380.957 343.592 390.512 353.152 395.578 365.178C399.499 374.486 399.499 379.918 399.499 390.782Z" fill="#F2FBFF" stroke="#401A24" stroke-width="10" stroke-linecap="round"/>
<path d="M146.245 242.353C141.458 229.648 142.196 215.52 148.28 203.383L152.535 194.894L159.434 181.129C163.33 173.358 172.545 169.886 180.6 173.155L194.867 178.944L203.666 182.515C216.246 187.62 226.122 197.749 230.909 210.454L232.12 213.668C240.929 237.047 229.117 263.141 205.738 271.949C182.359 280.758 156.265 268.946 147.456 245.567L146.245 242.353Z" fill="#C95D3C"/>
<path d="M194.867 178.944L196.747 174.311L194.867 178.944ZM152.535 194.894L148.065 192.653L152.535 194.894ZM203.666 182.515L205.546 177.882L203.666 182.515ZM226.231 212.217L227.442 215.431L236.799 211.905L235.588 208.691L226.231 212.217ZM152.135 243.804L150.924 240.59L141.567 244.116L142.777 247.33L152.135 243.804ZM192.987 183.577L201.785 187.148L205.546 177.882L196.747 174.311L192.987 183.577ZM178.72 177.788L192.987 183.577L196.747 174.311L182.48 168.522L178.72 177.788ZM152.75 205.623L157.005 197.134L148.065 192.653L143.81 201.142L152.75 205.623ZM157.005 197.134L163.904 183.37L154.964 178.889L148.065 192.653L157.005 197.134ZM182.48 168.522C172.008 164.272 160.029 168.785 154.964 178.889L163.904 183.37C166.631 177.93 173.081 175.499 178.72 177.788L182.48 168.522ZM203.975 267.271C183.18 275.106 159.97 264.599 152.135 243.804L142.777 247.33C152.56 273.293 181.537 286.411 207.501 276.628L203.975 267.271ZM227.442 215.431C235.277 236.226 224.77 259.435 203.975 267.271L207.501 276.628C233.464 266.846 246.582 237.868 236.799 211.905L227.442 215.431ZM235.588 208.691C230.31 194.681 219.419 183.512 205.546 177.882L201.785 187.148C213.074 191.729 221.935 200.817 226.231 212.217L235.588 208.691ZM150.924 240.59C146.629 229.19 147.291 216.514 152.75 205.623L143.81 201.142C137.101 214.527 136.288 230.105 141.567 244.116L150.924 240.59Z" fill="#401A24"/>
<path d="M361.888 281.984C361.888 336.453 312.686 380.609 251.992 380.609C191.298 380.609 142.096 336.453 142.096 281.984C142.096 227.515 194.77 168.647 255.464 168.647C316.158 168.647 361.888 227.515 361.888 281.984Z" fill="#ED8A5F" stroke="#401A24" stroke-width="10" stroke-linecap="round"/>
<path d="M166.676 166.258C167.82 164.19 169.237 162.285 170.888 160.594L193.079 137.864L207.806 125.916C214.115 120.797 220.909 116.308 228.092 112.512L229.355 111.844C239.94 106.251 251.329 102.337 263.116 100.243L263.734 100.133C275.584 98.0274 287.696 97.852 299.602 99.6135C316.454 102.107 332.512 108.423 346.546 118.08L351.737 121.652C358.707 126.447 365.223 131.87 371.205 137.852L371.866 138.513C388.05 154.697 400.127 174.52 407.087 196.325L409.161 202.823C411.863 211.288 413.365 220.091 413.622 228.973L414.967 275.447C415.06 278.657 413.522 281.695 410.879 283.519C405.797 287.029 398.768 284.815 396.614 279.026L388.387 256.917C387.433 254.354 386.862 251.664 386.692 248.935L386.466 245.288C385.802 234.605 381.888 224.381 375.25 215.985L372.947 213.071C369.987 209.327 366.619 205.924 362.906 202.924L353.473 195.303L337.513 178.499C337.461 178.444 337.405 178.393 337.345 178.347C335.902 177.224 334.075 179.149 335.272 180.532L345.412 192.248L355.434 203.828C361.996 211.411 365.608 221.103 365.608 231.13V241.68C365.608 243.144 365.169 244.574 364.349 245.785L352.206 263.717C351.222 265.17 352.816 266.981 354.382 266.19C355.748 265.5 355.58 263.499 354.119 263.046L236.27 226.547C231.33 225.017 226.188 224.239 221.017 224.239H169.84C167.343 224.239 164.895 224.92 162.757 226.209C150.735 233.459 136.877 220.107 143.674 207.824L166.676 166.258Z" fill="#E32239" stroke="#401A24" stroke-width="10"/>
<path d="M132.04 209.573C132.04 180.392 151.763 181.926 201.805 191.224C205.638 191.936 207.554 192.292 209.271 192.49C210.988 192.687 213.23 192.789 217.713 192.994C306.254 197.025 374.155 228.036 374.155 255.57C374.155 310.039 310.209 245.066 232.545 240.498C168.54 236.733 132.04 238.038 132.04 209.573Z" fill="#F2FBFF" stroke="#401A24" stroke-width="10" stroke-linecap="round"/>
<path d="M222.45 280.914C222.421 279.015 222.975 277.129 224.078 275.38C225.18 273.631 226.805 272.059 228.844 270.769C230.883 269.478 233.291 268.498 235.908 267.893C238.525 267.289 241.292 267.073 244.025 267.261C246.759 267.449 249.397 268.035 251.764 268.983C254.132 269.93 256.176 271.215 257.76 272.755C259.345 274.295 260.435 276.053 260.957 277.913C261.479 279.774 261.422 281.694 260.79 283.548" stroke="#401A24" stroke-width="10" stroke-linecap="round" stroke-linejoin="round"/>
<path d="M168.099 274.104C168.128 272.205 167.573 270.319 166.471 268.57C165.368 266.821 163.744 265.249 161.704 263.959C159.665 262.668 157.257 261.688 154.64 261.083C152.023 260.478 149.256 260.263 146.523 260.45C143.79 260.638 141.152 261.225 138.784 262.172C136.416 263.119 134.373 264.405 132.788 265.945C131.203 267.484 130.114 269.242 129.591 271.103C129.069 272.963 129.126 274.884 129.758 276.738" stroke="#401A24" stroke-width="10" stroke-linecap="round" stroke-linejoin="round"/>
<mask id="path-18-outside-1_63_84" maskUnits="userSpaceOnUse" x="128.156" y="290.188" width="138" height="181" fill="black">
<rect fill="white" x="128.156" y="290.188" width="138" height="181"/>
<path d="M187.966 302.819L186.505 303.148C185.931 303.278 185.383 303.504 184.885 303.818C183.286 304.825 181.266 304.882 179.613 303.966L178.235 303.203C177.798 302.961 177.338 302.761 176.863 302.607L175.094 302.031C173.339 301.459 171.529 301.067 169.694 300.861L169.392 300.827C167.906 300.66 166.409 300.612 164.915 300.683L164.85 300.686C163.092 300.769 161.336 301.024 159.625 301.442C157.915 301.86 156.238 302.446 154.64 303.186C153.209 303.848 151.839 304.633 150.544 305.532L150.015 305.899C148.419 307.007 146.948 308.285 145.628 309.709C144.401 311.034 143.31 312.478 142.372 314.02L142.271 314.186C141.366 315.673 140.601 317.241 139.986 318.869C139.398 320.423 138.948 322.03 138.642 323.663C138.32 325.385 138.156 327.138 138.156 328.89V329.143C138.156 330.527 138.258 331.909 138.462 333.277L138.503 333.554C138.778 335.407 139.256 337.223 139.928 338.971C140.522 340.519 141.266 342.005 142.148 343.408L143.278 345.207C143.512 345.579 143.778 345.93 144.074 346.254L145.957 348.321C146.683 349.117 146.899 350.254 146.515 351.26C146.232 352.393 146.042 353.55 145.947 354.715L146.003 356.472L146.302 358.217L146.336 358.33C146.659 359.407 147.07 360.455 147.563 361.465L148.555 363.015L149.41 364.118L149.475 364.184C150.116 364.841 150.817 365.438 151.568 365.966L151.768 366.106C152.443 366.581 153.163 366.986 153.918 367.318C154.628 367.629 155.366 367.874 156.121 368.048L157.436 368.351C157.515 368.369 157.595 368.38 157.676 368.383C158.511 368.418 159.102 369.212 158.896 370.022L158.545 371.4L158.3 373.297L158.136 375.577L158.218 377.912L158.422 380.109L158.805 382.28L159.369 384.516L160.124 386.588L160.957 388.595L161.956 390.453L163.09 392.274L164.466 394.035L165.818 395.551L167.271 397.057L167.931 397.576C169.628 398.908 170.576 400.979 170.475 403.133C170.368 405.428 169.088 407.506 167.086 408.633L165.468 409.545C164.937 409.844 164.434 410.191 163.966 410.582L163.124 411.285C162.311 411.963 161.548 412.699 160.842 413.487L159.553 414.924L157.66 417.566L155.976 420.478L154.776 423.398C154.172 425.426 153.712 427.494 153.402 429.587L153.301 430.269L153.209 434.018L153.345 435.965L153.659 437.873L154.052 439.719L154.575 441.566L155.296 443.523L156.164 445.416L157.162 447.255L158.251 448.966L159.534 450.662L160.95 452.282L162.478 453.761L164.129 455.127L166.978 457.082L170.166 458.76L173.361 459.928L176.755 460.713L180.054 461.03H183.442L186.778 460.587L190.036 459.766L191.995 459.016C193.348 458.499 194.65 457.856 195.884 457.098L197.739 455.958L197.897 455.829C200.046 454.079 202.046 452.155 203.876 450.074L203.909 450.036L205.451 447.9L206.788 445.561L207.869 443.107L208.722 440.62L209.325 438.053L209.667 435.567C209.667 432.442 211.359 429.56 214.089 428.037L214.148 428.004C214.535 427.788 214.905 427.543 215.255 427.271L217.067 425.861L219.12 423.812L221.094 421.553L222.87 418.955L224.228 416.374C224.341 416.158 224.44 415.934 224.522 415.704L224.713 415.167C225.174 413.876 226.249 412.9 227.578 412.566C227.877 412.491 228.166 412.382 228.44 412.243L230.049 411.423L230.995 410.762C231.648 410.304 232.254 409.783 232.804 409.206C233.353 408.629 233.843 408 234.268 407.326L234.896 406.329L235.352 405.312C235.763 404.396 236.067 403.435 236.259 402.449L236.437 401.535C236.48 401.316 236.501 401.094 236.501 400.872V400.409C236.501 399.295 237.168 398.29 238.194 397.857L239.886 397.142L241.898 396.041L244.332 394.358C246.18 392.863 247.912 391.231 249.513 389.474L249.633 389.344L251.875 386.163L252.813 384.39L253.71 382.473L254.971 378.701L255.447 376.516C255.711 374.738 255.844 372.943 255.844 371.145V370.527L255.571 367.617L255.026 364.981L254.162 361.798L253.071 359.252L251.514 356.598L250.232 354.695L249.327 353.601C248.956 353.153 248.856 352.538 249.067 351.995L249.32 351.092C249.545 350.317 249.673 349.517 249.7 348.71L249.752 347.182C249.782 346.282 249.706 345.382 249.523 344.5C249.389 343.852 249.199 343.218 248.955 342.604L248.863 342.373C248.576 341.65 248.223 340.955 247.808 340.297L247.375 339.609C247.263 339.432 247.136 339.265 246.995 339.11C246.19 338.228 245.884 336.999 246.182 335.843L246.667 333.956C246.817 333.375 246.893 332.777 246.893 332.176V329.112C246.993 325.733 246.496 322.362 245.425 319.156L245.319 318.839C244.74 317.107 244.007 315.43 243.129 313.828L242.927 313.46L241.017 310.745L238.988 308.567L236.88 306.622L236.696 306.485C234.95 305.193 233.077 304.084 231.105 303.173C229.046 302.087 226.847 301.288 224.57 300.799L223.815 300.637L222.022 300.431C220.616 300.269 219.199 300.217 217.785 300.275C216.468 300.329 215.157 300.478 213.862 300.722L211.778 301.114L207.969 302.375L204.667 303.993C204.37 304.138 204.091 304.316 203.834 304.524L203.678 304.65C202.122 305.906 199.895 305.885 198.364 304.599C198.058 304.342 197.717 304.13 197.351 303.97L196.285 303.504C194.737 302.827 193.066 302.477 191.376 302.477H191.029C189.998 302.477 188.971 302.592 187.966 302.819Z"/>
</mask>
<path d="M187.966 302.819L186.505 303.148C185.931 303.278 185.383 303.504 184.885 303.818C183.286 304.825 181.266 304.882 179.613 303.966L178.235 303.203C177.798 302.961 177.338 302.761 176.863 302.607L175.094 302.031C173.339 301.459 171.529 301.067 169.694 300.861L169.392 300.827C167.906 300.66 166.409 300.612 164.915 300.683L164.85 300.686C163.092 300.769 161.336 301.024 159.625 301.442C157.915 301.86 156.238 302.446 154.64 303.186C153.209 303.848 151.839 304.633 150.544 305.532L150.015 305.899C148.419 307.007 146.948 308.285 145.628 309.709C144.401 311.034 143.31 312.478 142.372 314.02L142.271 314.186C141.366 315.673 140.601 317.241 139.986 318.869C139.398 320.423 138.948 322.03 138.642 323.663C138.32 325.385 138.156 327.138 138.156 328.89V329.143C138.156 330.527 138.258 331.909 138.462 333.277L138.503 333.554C138.778 335.407 139.256 337.223 139.928 338.971C140.522 340.519 141.266 342.005 142.148 343.408L143.278 345.207C143.512 345.579 143.778 345.93 144.074 346.254L145.957 348.321C146.683 349.117 146.899 350.254 146.515 351.26C146.232 352.393 146.042 353.55 145.947 354.715L146.003 356.472L146.302 358.217L146.336 358.33C146.659 359.407 147.07 360.455 147.563 361.465L148.555 363.015L149.41 364.118L149.475 364.184C150.116 364.841 150.817 365.438 151.568 365.966L151.768 366.106C152.443 366.581 153.163 366.986 153.918 367.318C154.628 367.629 155.366 367.874 156.121 368.048L157.436 368.351C157.515 368.369 157.595 368.38 157.676 368.383C158.511 368.418 159.102 369.212 158.896 370.022L158.545 371.4L158.3 373.297L158.136 375.577L158.218 377.912L158.422 380.109L158.805 382.28L159.369 384.516L160.124 386.588L160.957 388.595L161.956 390.453L163.09 392.274L164.466 394.035L165.818 395.551L167.271 397.057L167.931 397.576C169.628 398.908 170.576 400.979 170.475 403.133C170.368 405.428 169.088 407.506 167.086 408.633L165.468 409.545C164.937 409.844 164.434 410.191 163.966 410.582L163.124 411.285C162.311 411.963 161.548 412.699 160.842 413.487L159.553 414.924L157.66 417.566L155.976 420.478L154.776 423.398C154.172 425.426 153.712 427.494 153.402 429.587L153.301 430.269L153.209 434.018L153.345 435.965L153.659 437.873L154.052 439.719L154.575 441.566L155.296 443.523L156.164 445.416L157.162 447.255L158.251 448.966L159.534 450.662L160.95 452.282L162.478 453.761L164.129 455.127L166.978 457.082L170.166 458.76L173.361 459.928L176.755 460.713L180.054 461.03H183.442L186.778 460.587L190.036 459.766L191.995 459.016C193.348 458.499 194.65 457.856 195.884 457.098L197.739 455.958L197.897 455.829C200.046 454.079 202.046 452.155 203.876 450.074L203.909 450.036L205.451 447.9L206.788 445.561L207.869 443.107L208.722 440.62L209.325 438.053L209.667 435.567C209.667 432.442 211.359 429.56 214.089 428.037L214.148 428.004C214.535 427.788 214.905 427.543 215.255 427.271L217.067 425.861L219.12 423.812L221.094 421.553L222.87 418.955L224.228 416.374C224.341 416.158 224.44 415.934 224.522 415.704L224.713 415.167C225.174 413.876 226.249 412.9 227.578 412.566C227.877 412.491 228.166 412.382 228.44 412.243L230.049 411.423L230.995 410.762C231.648 410.304 232.254 409.783 232.804 409.206C233.353 408.629 233.843 408 234.268 407.326L234.896 406.329L235.352 405.312C235.763 404.396 236.067 403.435 236.259 402.449L236.437 401.535C236.48 401.316 236.501 401.094 236.501 400.872V400.409C236.501 399.295 237.168 398.29 238.194 397.857L239.886 397.142L241.898 396.041L244.332 394.358C246.18 392.863 247.912 391.231 249.513 389.474L249.633 389.344L251.875 386.163L252.813 384.39L253.71 382.473L254.971 378.701L255.447 376.516C255.711 374.738 255.844 372.943 255.844 371.145V370.527L255.571 367.617L255.026 364.981L254.162 361.798L253.071 359.252L251.514 356.598L250.232 354.695L249.327 353.601C248.956 353.153 248.856 352.538 249.067 351.995L249.32 351.092C249.545 350.317 249.673 349.517 249.7 348.71L249.752 347.182C249.782 346.282 249.706 345.382 249.523 344.5C249.389 343.852 249.199 343.218 248.955 342.604L248.863 342.373C248.576 341.65 248.223 340.955 247.808 340.297L247.375 339.609C247.263 339.432 247.136 339.265 246.995 339.11C246.19 338.228 245.884 336.999 246.182 335.843L246.667 333.956C246.817 333.375 246.893 332.777 246.893 332.176V329.112C246.993 325.733 246.496 322.362 245.425 319.156L245.319 318.839C244.74 317.107 244.007 315.43 243.129 313.828L242.927 313.46L241.017 310.745L238.988 308.567L236.88 306.622L236.696 306.485C234.95 305.193 233.077 304.084 231.105 303.173C229.046 302.087 226.847 301.288 224.57 300.799L223.815 300.637L222.022 300.431C220.616 300.269 219.199 300.217 217.785 300.275C216.468 300.329 215.157 300.478 213.862 300.722L211.778 301.114L207.969 302.375L204.667 303.993C204.37 304.138 204.091 304.316 203.834 304.524L203.678 304.65C202.122 305.906 199.895 305.885 198.364 304.599C198.058 304.342 197.717 304.13 197.351 303.97L196.285 303.504C194.737 302.827 193.066 302.477 191.376 302.477H191.029C189.998 302.477 188.971 302.592 187.966 302.819Z" fill="#F2FBFF"/>
<path d="M187.966 302.819L186.505 303.148C185.931 303.278 185.383 303.504 184.885 303.818C183.286 304.825 181.266 304.882 179.613 303.966L178.235 303.203C177.798 302.961 177.338 302.761 176.863 302.607L175.094 302.031C173.339 301.459 171.529 301.067 169.694 300.861L169.392 300.827C167.906 300.66 166.409 300.612 164.915 300.683L164.85 300.686C163.092 300.769 161.336 301.024 159.625 301.442C157.915 301.86 156.238 302.446 154.64 303.186C153.209 303.848 151.839 304.633 150.544 305.532L150.015 305.899C148.419 307.007 146.948 308.285 145.628 309.709C144.401 311.034 143.31 312.478 142.372 314.02L142.271 314.186C141.366 315.673 140.601 317.241 139.986 318.869C139.398 320.423 138.948 322.03 138.642 323.663C138.32 325.385 138.156 327.138 138.156 328.89V329.143C138.156 330.527 138.258 331.909 138.462 333.277L138.503 333.554C138.778 335.407 139.256 337.223 139.928 338.971C140.522 340.519 141.266 342.005 142.148 343.408L143.278 345.207C143.512 345.579 143.778 345.93 144.074 346.254L145.957 348.321C146.683 349.117 146.899 350.254 146.515 351.26C146.232 352.393 146.042 353.55 145.947 354.715L146.003 356.472L146.302 358.217L146.336 358.33C146.659 359.407 147.07 360.455 147.563 361.465L148.555 363.015L149.41 364.118L149.475 364.184C150.116 364.841 150.817 365.438 151.568 365.966L151.768 366.106C152.443 366.581 153.163 366.986 153.918 367.318C154.628 367.629 155.366 367.874 156.121 368.048L157.436 368.351C157.515 368.369 157.595 368.38 157.676 368.383C158.511 368.418 159.102 369.212 158.896 370.022L158.545 371.4L158.3 373.297L158.136 375.577L158.218 377.912L158.422 380.109L158.805 382.28L159.369 384.516L160.124 386.588L160.957 388.595L161.956 390.453L163.09 392.274L164.466 394.035L165.818 395.551L167.271 397.057L167.931 397.576C169.628 398.908 170.576 400.979 170.475 403.133C170.368 405.428 169.088 407.506 167.086 408.633L165.468 409.545C164.937 409.844 164.434 410.191 163.966 410.582L163.124 411.285C162.311 411.963 161.548 412.699 160.842 413.487L159.553 414.924L157.66 417.566L155.976 420.478L154.776 423.398C154.172 425.426 153.712 427.494 153.402 429.587L153.301 430.269L153.209 434.018L153.345 435.965L153.659 437.873L154.052 439.719L154.575 441.566L155.296 443.523L156.164 445.416L157.162 447.255L158.251 448.966L159.534 450.662L160.95 452.282L162.478 453.761L164.129 455.127L166.978 457.082L170.166 458.76L173.361 459.928L176.755 460.713L180.054 461.03H183.442L186.778 460.587L190.036 459.766L191.995 459.016C193.348 458.499 194.65 457.856 195.884 457.098L197.739 455.958L197.897 455.829C200.046 454.079 202.046 452.155 203.876 450.074L203.909 450.036L205.451 447.9L206.788 445.561L207.869 443.107L208.722 440.62L209.325 438.053L209.667 435.567C209.667 432.442 211.359 429.56 214.089 428.037L214.148 428.004C214.535 427.788 214.905 427.543 215.255 427.271L217.067 425.861L219.12 423.812L221.094 421.553L222.87 418.955L224.228 416.374C224.341 416.158 224.44 415.934 224.522 415.704L224.713 415.167C225.174 413.876 226.249 412.9 227.578 412.566C227.877 412.491 228.166 412.382 228.44 412.243L230.049 411.423L230.995 410.762C231.648 410.304 232.254 409.783 232.804 409.206C233.353 408.629 233.843 408 234.268 407.326L234.896 406.329L235.352 405.312C235.763 404.396 236.067 403.435 236.259 402.449L236.437 401.535C236.48 401.316 236.501 401.094 236.501 400.872V400.409C236.501 399.295 237.168 398.29 238.194 397.857L239.886 397.142L241.898 396.041L244.332 394.358C246.18 392.863 247.912 391.231 249.513 389.474L249.633 389.344L251.875 386.163L252.813 384.39L253.71 382.473L254.971 378.701L255.447 376.516C255.711 374.738 255.844 372.943 255.844 371.145V370.527L255.571 367.617L255.026 364.981L254.162 361.798L253.071 359.252L251.514 356.598L250.232 354.695L249.327 353.601C248.956 353.153 248.856 352.538 249.067 351.995L249.32 351.092C249.545 350.317 249.673 349.517 249.7 348.71L249.752 347.182C249.782 346.282 249.706 345.382 249.523 344.5C249.389 343.852 249.199 343.218 248.955 342.604L248.863 342.373C248.576 341.65 248.223 340.955 247.808 340.297L247.375 339.609C247.263 339.432 247.136 339.265 246.995 339.11C246.19 338.228 245.884 336.999 246.182 335.843L246.667 333.956C246.817 333.375 246.893 332.777 246.893 332.176V329.112C246.993 325.733 246.496 322.362 245.425 319.156L245.319 318.839C244.74 317.107 244.007 315.43 243.129 313.828L242.927 313.46L241.017 310.745L238.988 308.567L236.88 306.622L236.696 306.485C234.95 305.193 233.077 304.084 231.105 303.173C229.046 302.087 226.847 301.288 224.57 300.799L223.815 300.637L222.022 300.431C220.616 300.269 219.199 300.217 217.785 300.275C216.468 300.329 215.157 300.478 213.862 300.722L211.778 301.114L207.969 302.375L204.667 303.993C204.37 304.138 204.091 304.316 203.834 304.524L203.678 304.65C202.122 305.906 199.895 305.885 198.364 304.599C198.058 304.342 197.717 304.13 197.351 303.97L196.285 303.504C194.737 302.827 193.066 302.477 191.376 302.477H191.029C189.998 302.477 188.971 302.592 187.966 302.819Z" stroke="#401A24" stroke-width="20" mask="url(#path-18-outside-1_63_84)"/>
<path d="M176.842 333.378C178.051 334.818 179.808 336.014 181.982 336.877C184.156 337.739 186.692 338.247 189.403 338.363C192.114 338.478 194.93 338.198 197.645 337.544C200.36 336.889 202.904 335.877 205.089 334.581" stroke="#401A24" stroke-width="10" stroke-linecap="round" stroke-linejoin="round"/>
<path d="M439.588 290.146C443.39 305.642 433.911 321.286 418.415 325.088C402.92 328.89 387.276 319.411 383.474 303.915C379.672 288.42 404.646 268.974 404.646 268.974C404.646 268.974 435.786 274.651 439.588 290.146Z" fill="#F2FBFF" stroke="#401A24" stroke-width="10" stroke-linejoin="round"/>
<path d="M229.198 438.683C216.979 436.045 216.854 509.813 219.178 526.085C229.406 555.374 223.246 549.954 219.178 574.435C215.111 598.917 203.141 585.325 207.121 609.87C211.102 634.415 218.879 655.415 229.198 669.486C239.518 683.557 251.779 689.88 264.008 687.435C276.236 684.991 266.191 676.488 275.078 658.578C283.965 640.668 267.101 650.22 268.832 624.533C270.562 598.847 250.379 588.065 271.195 550.464" stroke="#401A24" stroke-width="10" stroke-linecap="round" stroke-linejoin="round"/>
</g>
<defs>
<clipPath id="clip0_63_84">
<rect width="512" height="512" fill="white"/>
</clipPath>
</defs>
</svg>
